<?xml version="1.0" standalone="no"?>
<!DOCTYPE svg PUBLIC "-//W3C//DTD SVG 20010904//EN"
 "http://www.w3.org/TR/2001/REC-SVG-20010904/DTD/svg10.dtd">
<svg version="1.0" xmlns="http://www.w3.org/2000/svg"
 width="160pt" height="200pt" viewBox="0 0 570.000000 967.000000"
 preserveAspectRatio="xMidYMid meet">

<g transform="translate(0.000000,967.000000) scale(0.100000,-0.100000)"
fill="#000000" stroke="none">
<path d="M3518 9079 c-42 -44 -58 -76 -58 -113 0 -15 -13 -33 -35 -50 -32 -25
-35 -32 -35 -77 0 -33 9 -70 29 -114 28 -61 29 -67 20 -142 -5 -43 -11 -82
-13 -88 -2 -5 12 -40 31 -77 30 -61 34 -82 43 -195 6 -71 17 -155 26 -187 41
-165 71 -347 80 -488 9 -143 8 -143 -110 -5 -92 109 -167 124 -294 56 -42 -22
-117 -51 -167 -64 -49 -13 -122 -33 -161 -43 -106 -28 -184 -91 -272 -218 -12
-18 -44 -46 -72 -64 -57 -37 -61 -36 -206 31 -127 58 -238 73 -281 37 -38 -31
10 -139 128 -283 110 -135 104 -123 143 -275 56 -216 100 -328 173 -440 50
-78 84 -107 217 -185 211 -123 376 -310 461 -520 26 -64 29 -81 28 -190 0
-145 -33 -332 -88 -499 -7 -22 -39 -122 -70 -221 -155 -491 -240 -721 -307
-836 -15 -24 -87 -124 -161 -222 -113 -150 -149 -208 -227 -360 -136 -268
-182 -340 -281 -439 -74 -74 -100 -93 -190 -137 -268 -130 -501 -145 -709 -45
-54 26 -96 57 -169 128 -53 51 -112 101 -131 111 -44 24 -143 26 -165 4 -24
-24 -56 -126 -49 -157 28 -121 99 -253 188 -351 167 -181 570 -277 952 -227
213 29 326 66 490 162 44 26 63 20 45 -13 -15 -25 -49 -112 -126 -313 -63
-167 -109 -269 -124 -280 -13 -9 -88 -114 -105 -147 -41 -81 0 -431 82 -699 5
-17 42 -81 81 -142 56 -86 78 -112 99 -116 99 -21 357 -42 389 -32 17 6 21 21
32 140 12 132 12 134 -11 175 -13 23 -54 77 -91 121 -37 44 -74 95 -82 115
-26 62 -13 205 19 205 6 0 31 -29 54 -64 28 -40 125 -141 267 -274 260 -244
227 -229 461 -219 158 6 191 16 243 70 31 33 33 38 27 84 -10 72 -50 146 -94
177 -47 32 -80 42 -169 51 -37 4 -74 13 -82 19 -42 33 -213 299 -200 310 2 1
31 23 64 48 33 24 101 69 150 98 258 151 302 180 370 243 130 120 165 209 220
562 29 185 57 302 86 358 7 12 56 83 109 157 117 163 321 468 377 565 155 269
208 440 233 765 6 74 15 180 20 235 5 55 9 189 10 297 0 156 4 221 22 320 32
179 32 499 1 643 -12 55 -23 133 -25 173 l-3 73 45 55 c84 104 110 153 110
206 0 44 -4 54 -47 100 -71 75 -134 108 -209 108 l-62 0 -54 93 c-135 227
-146 258 -154 444 -3 76 -17 206 -30 288 -14 83 -28 166 -31 185 -8 50 -61
223 -145 470 -41 118 -81 245 -91 282 -35 137 -16 218 88 373 37 55 59 99 62
125 5 35 2 43 -30 75 -31 31 -41 35 -86 35 l-50 0 2 64 c2 56 -1 68 -23 91
-14 15 -37 33 -52 41 -31 16 -111 19 -138 4 -14 -8 -23 -3 -43 23 -23 30 -78
57 -117 57 -7 0 -31 -19 -52 -41z m100 -68 c9 -10 28 -31 41 -45 28 -31 63
-33 102 -6 l28 21 30 -22 c31 -23 35 -33 46 -111 10 -67 24 -81 86 -88 50 -5
54 -7 57 -32 4 -30 -16 -65 -65 -118 -55 -59 -93 -141 -93 -199 0 -68 61 -303
140 -543 54 -161 116 -399 137 -518 4 -25 8 -153 8 -285 l0 -240 52 -105 c29
-58 71 -139 94 -182 23 -42 38 -81 34 -87 -3 -7 -46 -32 -95 -56 -83 -41 -92
-49 -137 -116 -26 -40 -96 -124 -154 -189 -58 -64 -124 -141 -147 -171 -76
-101 -112 -212 -112 -350 0 -80 6 -99 30 -99 14 0 20 11 25 41 10 59 92 285
126 349 17 30 75 102 129 160 55 58 117 129 137 159 108 153 165 186 351 198
92 6 111 0 71 -25 -36 -23 -21 -53 36 -68 28 -7 62 -13 77 -14 15 0 29 -4 32
-8 3 -5 -4 -33 -15 -64 -27 -71 -50 -84 -124 -67 -59 13 -105 6 -105 -16 0
-19 62 -65 88 -65 15 0 22 -6 22 -20 0 -18 -7 -20 -61 -20 -53 0 -70 -5 -120
-35 -72 -44 -131 -110 -149 -167 -8 -27 -16 -119 -20 -243 -7 -239 -18 -278
-91 -315 -55 -29 -93 -23 -207 29 -49 23 -94 41 -100 41 -18 0 -14 -65 6 -86
9 -11 49 -34 88 -52 188 -85 371 -5 437 192 23 67 21 106 -8 205 -14 47 -25
103 -25 125 1 55 31 118 71 149 47 35 118 62 130 50 6 -6 20 -64 31 -129 17
-100 21 -161 21 -384 0 -228 -3 -289 -24 -435 -16 -111 -23 -203 -21 -265 6
-202 -25 -645 -54 -765 -44 -179 -158 -384 -390 -700 -216 -293 -285 -407
-328 -538 -34 -107 -71 -285 -91 -442 -9 -71 -24 -150 -32 -174 -26 -73 -127
-165 -286 -260 -127 -76 -437 -312 -437 -332 0 -30 42 -120 111 -234 43 -72
79 -140 79 -151 0 -34 12 -62 27 -68 8 -3 51 4 96 15 71 19 88 20 126 10 90
-25 167 -157 105 -178 -6 -2 -21 20 -33 48 -22 49 -52 72 -78 62 -21 -8 -25
-42 -9 -75 28 -55 23 -61 -41 -55 -32 4 -98 9 -146 13 l-88 7 -87 86 c-133
133 -372 424 -372 454 0 18 150 172 337 345 171 159 245 257 324 432 115 255
158 335 224 429 119 168 168 284 133 319 -19 19 -26 15 -85 -40 -72 -68 -156
-177 -274 -358 -132 -200 -141 -216 -172 -295 -15 -38 -52 -106 -82 -150 -30
-44 -70 -102 -89 -130 -19 -27 -110 -124 -201 -215 -211 -209 -259 -261 -304
-330 l-36 -55 3 -104 c4 -168 35 -244 141 -349 77 -75 94 -113 84 -193 -11
-92 -44 -75 -47 25 -2 62 -5 69 -42 107 -44 45 -77 49 -82 10 -3 -16 4 -31 21
-45 22 -18 26 -30 29 -91 l3 -70 -36 -3 c-56 -5 -67 13 -61 100 5 79 -7 104
-45 96 -15 -3 -20 -20 -28 -95 -11 -96 -16 -110 -35 -98 -14 9 -77 134 -107
214 -55 146 -103 400 -103 544 0 58 4 75 24 101 29 39 86 145 115 216 32 78
31 77 124 270 145 302 136 262 139 635 2 249 0 331 -11 368 -7 26 -17 47 -21
47 -15 0 -56 -120 -64 -190 -16 -127 -37 -259 -47 -295 -24 -89 -98 -177 -176
-211 -57 -24 -294 -82 -407 -99 -183 -28 -398 -17 -546 26 -109 32 -220 99
-289 175 -55 60 -138 215 -148 276 -5 33 -2 39 19 49 39 17 93 -17 177 -110
142 -158 350 -237 554 -211 45 5 178 40 297 76 169 52 225 74 260 101 96 73
235 263 290 398 35 85 62 127 232 363 242 335 409 642 473 867 20 72 41 144
46 160 5 17 21 71 35 120 14 50 50 166 80 260 94 291 134 467 134 581 -1 142
-41 252 -137 371 -30 37 -75 97 -98 133 -57 85 -108 132 -230 215 -173 118
-269 213 -334 335 -14 25 -29 53 -35 62 -6 9 -8 19 -6 22 3 2 37 -3 76 -12
137 -29 137 -1 2 110 -132 107 -157 133 -190 199 -15 30 -41 77 -58 106 -16
29 -26 54 -22 57 4 2 35 -4 67 -15 33 -11 100 -22 149 -26 106 -7 116 0 116
84 0 63 -10 66 -58 21 -45 -45 -98 -44 -207 1 -44 19 -100 37 -124 40 -38 5
-49 12 -77 51 -71 98 -44 96 166 -16 45 -24 67 -29 122 -29 58 0 72 4 110 30
23 17 65 60 93 95 114 148 164 178 395 240 63 16 136 40 163 52 36 17 50 19
59 10 17 -17 53 -15 68 3 11 13 16 13 42 -3 17 -9 37 -27 46 -40 14 -21 12
-28 -21 -100 -24 -50 -38 -95 -39 -127 -3 -49 -2 -50 26 -50 27 0 32 6 65 80
19 44 40 83 45 87 5 3 22 -9 37 -28 l28 -35 -31 -66 c-29 -62 -31 -69 -19
-112 23 -92 150 -321 234 -423 43 -53 72 -61 81 -24 14 57 -16 129 -105 251
-97 135 -107 181 -63 291 22 57 26 82 29 207 3 133 1 154 -37 342 -56 281 -55
277 -67 307 -6 15 -15 85 -21 155 -13 148 -22 190 -51 227 -19 24 -20 32 -10
74 27 122 26 134 -18 208 -23 37 -41 74 -41 82 0 8 20 33 44 56 32 30 46 52
51 81 12 65 32 80 63 46z"/>
<path d="M3060 7401 c-69 -22 -110 -43 -134 -70 -15 -17 -18 -31 -13 -73 7
-64 81 -228 103 -228 26 0 27 30 4 113 -36 131 -37 121 10 142 22 10 56 36 75
57 59 65 43 86 -45 59z"/>
</g>
</svg>
